<svg height="511pt" viewBox="0 -108 511.99926 511" width="511pt" xmlns="http://www.w3.org/2000/svg"><path d="m88.410156 245.058594c106.875 61.703125 268.546875 68.40625 361.105469 14.96875 92.554687-53.4375 80.949219-146.78125-25.925781-208.484375s-268.546875-68.40625-361.105469-14.96875c-92.554687 53.4375-80.949219 146.78125 25.925781 208.484375zm0 0" fill="#de8d43"/><path d="m484.875 101.582031c10.726562 38.355469-6.644531 76.742188-53.542969 103.820313-83.859375 48.414062-230.339843 42.34375-327.171875-13.5625-63.152344-36.460938-89.578125-85.109375-77.070312-127.972656-51.3125 54.167968-29.082032 128.996093 61.320312 181.191406 106.875 61.703125 268.546875 68.40625 361.105469 14.96875 69.863281-40.335938 80.363281-103.402344 35.359375-158.445313zm0 0" fill="#a76a32"/><g fill="#543519"><path d="m120.792969 49.0625c18 10.394531 45.230469 11.523438 60.820312 2.523438 15.589844-9.003907 13.636719-24.722657-4.367187-35.117188-18-10.390625-45.230469-11.519531-60.820313-2.519531-15.589843 9-13.632812 24.722656 4.367188 35.113281zm0 0"/><path d="m135.304688 165.746094c18 10.394531 45.230468 11.523437 60.820312 2.519531 15.589844-9 13.632812-24.71875-4.367188-35.113281-18-10.394532-45.234374-11.523438-60.820312-2.519532-15.589844 9-13.636719 24.71875 4.367188 35.113282zm0 0"/><path d="m322.894531 57.441406c18 10.394532 45.230469 11.523438 60.820313 2.519532 15.589844-9 13.632812-24.71875-4.367188-35.113282-18-10.394531-45.230468-11.523437-60.820312-2.519531-15.589844 9-13.632813 24.71875 4.367187 35.113281zm0 0"/><path d="m337.40625 174.125c18 10.390625 45.230469 11.519531 60.820312 2.519531 15.585938-9 13.632813-24.722656-4.367187-35.113281-18.003906-10.394531-45.234375-11.523438-60.820313-2.523438-15.589843 9-13.636718 24.722657 4.367188 35.117188zm0 0"/></g></svg>