<svg height="512" viewBox="0 0 512 512" width="512" xmlns="http://www.w3.org/2000/svg"><g id="flat"><ellipse cx="256" cy="304" fill="#fbb540" rx="232" ry="168"/><path d="m416 253.33h-312v-200.53c0-7.069 5.373-12.8 12-12.8h288c6.627 0 12 5.731 12 12.8z" fill="#5b3726"/><path d="m233.8 120a17.793 17.793 0 0 0 15.914-9.836 11.152 11.152 0 0 1 9.972-6.164h2.214a11.152 11.152 0 0 1 9.975 6.164 17.793 17.793 0 0 0 15.915 9.836 17.793 17.793 0 0 0 17.551-20.718l-.046-.272a32.324 32.324 0 0 0 -31.884-27.01h-25.235a32.324 32.324 0 0 0 -31.884 27.01l-.046.272a17.793 17.793 0 0 0 17.554 20.718z" fill="#eeb58e"/><path d="m358.528 135.166a17.8 17.8 0 0 0 -10.612 15.408 11.15 11.15 0 0 1 -6.651 9.656l-2.028.892a11.153 11.153 0 0 1 -11.612-1.631 17.8 17.8 0 0 0 -18.527-2.6 17.793 17.793 0 0 0 -7.731 26.028l.151.232a32.324 32.324 0 0 0 40.057 11.9l23.1-10.153a32.323 32.323 0 0 0 18.325-37.559l-.068-.267a17.793 17.793 0 0 0 -24.404-11.906z" fill="#cd9c7a"/><path d="m211.525 153.181a17.8 17.8 0 0 0 -18.125 4.619 11.15 11.15 0 0 1 -11.362 2.9l-2.114-.663a11.152 11.152 0 0 1 -7.672-8.867 17.791 17.791 0 0 0 -12.24-14.148 17.793 17.793 0 0 0 -22.948 14.514l-.038.274a32.324 32.324 0 0 0 22.338 35.315l24.078 7.553a32.324 32.324 0 0 0 38.507-16.228l.125-.246a17.792 17.792 0 0 0 -10.549-25.023z" fill="#cd9c7a"/><path d="m148.8 75.2h24v24h-24z" fill="#fbd699" transform="matrix(.6 -.8 .8 .6 -5.44 163.52)"/><path d="m348.402 76.402h24v24h-24z" fill="#fbd699" transform="matrix(.928 -.371 .371 .928 -7.054 140.173)"/><path d="m248 180.8h24v24h-24z" fill="#fbd699" transform="matrix(.8 -.6 .6 .8 -63.68 194.56)"/><path d="m408 360h-296a8 8 0 0 1 -8-8v-112h312v112a8 8 0 0 1 -8 8z" fill="#744630"/><g fill="#533222"><path d="m376 296h16v16h-16z"/><path d="m192 320h16v16h-16z"/><path d="m160 296h16v16h-16z"/><path d="m216 296h16v16h-16z"/><path d="m240 320h16v16h-16z"/><path d="m344 312h16v16h-16z"/><path d="m128 288h16v16h-16z"/><path d="m128 320h16v16h-16z"/><path d="m416 240h-312v20a12 12 0 0 0 12 12h140a16 16 0 0 0 32 0v39.548c0 8.615 6.621 16.029 15.227 16.434a16 16 0 0 0 16.773-15.982v-32a16 16 0 0 0 16.773 15.982c8.606-.405 15.227-7.819 15.227-16.434v-7.548h52a12 12 0 0 0 12-12z"/></g><path d="m360 428.191a8 8 0 0 1 -3.068-15.391 192.488 192.488 0 0 0 46.089-26.671 8 8 0 0 1 9.952 12.529 208.482 208.482 0 0 1 -49.911 28.921 7.971 7.971 0 0 1 -3.062.612z" fill="#fbd699"/><path d="m168 434.164a8 8 0 0 1 -2.533-.413 234.763 234.763 0 0 1 -41.414-18.289 8 8 0 1 1 7.892-13.918 218.734 218.734 0 0 0 38.586 17.029 8 8 0 0 1 -2.531 15.591z" fill="#fbd699"/><path d="m256 448a297.032 297.032 0 0 1 -57.554-5.556 8 8 0 1 1 3.108-15.695 284.892 284.892 0 0 0 108.892 0 8 8 0 1 1 3.108 15.695 297.032 297.032 0 0 1 -57.554 5.556z" fill="#fbd699"/></g></svg>