<svg height="512pt" viewBox="0 -15 512 512" width="512pt" xmlns="http://www.w3.org/2000/svg"><path d="m308.019531 103.457031c-3.449219 0-6.589843-2.324219-7.480469-5.816406-7.054687-27.636719-1.300781-62.699219 2.582032-80.535156-14.484375 3.542969-29.710938 12.351562-45.40625 26.289062-17.613282 15.640625-30.234375 32.871094-34.84375 39.554688-2.425782 3.511719-7.234375 4.394531-10.75 1.972656-3.511719-2.425781-4.394532-7.234375-1.972656-10.75 8.144531-11.804687 51.375-70.871094 102.710937-74.15625 2.503906-.164063 4.925781.90625 6.503906 2.855469 1.574219 1.953125 2.105469 4.546875 1.421875 6.957031-.136718.496094-13.921875 50.125-5.273437 83.992187 1.054687 4.132813-1.441407 8.339844-5.574219 9.394532-.644531.164062-1.285156.242187-1.917969.242187zm0 0" fill="#eab765"/><path d="m247.515625 118.929688c-6.476563 19.734374-27.96875 30.265624-48.007813 23.523437-20.042968-6.742187-31.042968-28.203125-24.566406-47.9375 6.472656-19.734375 27.175782-27.855469 47.214844-21.117187 20.042969 6.742187 31.832031 25.796874 25.359375 45.53125zm0 0" fill="#ff646f"/><path d="m335.71875 110.484375c1.390625 14.824219-9.183594 27.96875-23.609375 29.351563-14.429687 1.386718-27.25-9.511719-28.640625-24.335938-1.386719-14.828125 9.355469-26.160156 23.78125-27.546875 14.429688-1.382813 27.082031 7.703125 28.46875 22.53125zm0 0" fill="#ff4755"/><path d="m455.601562 165.078125c0-21.660156-17.558593-39.222656-39.222656-39.222656h-320.761718c-21.660157 0-39.222657 17.5625-39.222657 39.222656l-.003906 279.339844h399.21875zm0 0" fill="#bb8080"/><path d="m455.601562 165.078125c0-21.660156-17.558593-39.222656-39.222656-39.222656h-32.957031c21.660156 0 39.222656 17.5625 39.222656 39.222656l.003907 279.339844h32.960937zm0 0" fill="#af6c6c"/><path d="m56.390625 274.339844h399.21875v60.519531h-399.21875zm0 0" fill="#fde6bf"/><path d="m422.648438 274.339844h32.957031v60.519531h-32.957031zm0 0" fill="#fdd79b"/><path d="m455.601562 165.078125c0-21.660156-17.558593-39.222656-39.222656-39.222656h-320.757812c-21.664063 0-39.222656 17.5625-39.222656 39.222656l-.003907 35.691406c12.84375 6.074219 23.527344 18.4375 44.589844 18.4375 28.503906 0 29.664063-21.753906 51.671875-21.753906 21.871094 0 23.367188 21.753906 51.667969 21.753906 28.5 0 29.660156-21.753906 51.667969-21.753906 22.054687 0 23.152343 21.753906 51.667968 21.753906 28.503906 0 29.664063-21.753906 51.667969-21.753906 22.058594 0 23.15625 21.753906 51.679687 21.753906 21.671876 0 31.636719-12.707031 44.597657-18.6875zm0 0" fill="#855151"/><path d="m455.605469 200.519531-.003907-35.441406c0-21.660156-17.558593-39.222656-39.222656-39.222656h-32.957031c21.660156 0 39.222656 17.5625 39.222656 39.222656v52.773437c14.105469-3.433593 22.574219-12.539062 32.960938-17.332031zm0 0" fill="#704444"/><path d="m495.300781 430.640625h-480.753906c11.652344 31.179687 41.4375 51.84375 74.722656 51.84375h331.308594c33.285156 0 63.070313-20.664063 74.722656-51.84375zm0 0" fill="#a8d3d8"/><path d="m462.855469 430.640625-3.308594 8.851563c-9.660156 25.855468-34.359375 42.992187-61.960937 42.992187h22.992187c33.285156 0 63.070313-20.664063 74.722656-51.84375zm0 0" fill="#8ebac5"/><path d="m496.152344 440.628906h-480.304688c-8.753906 0-15.847656-7.097656-15.847656-15.847656s7.09375-15.84375 15.847656-15.84375h480.304688c8.753906 0 15.847656 7.09375 15.847656 15.84375s-7.09375 15.847656-15.847656 15.847656zm0 0" fill="#deecf1"/></svg>