<svg height="512" viewBox="0 0 59 59" width="512" xmlns="http://www.w3.org/2000/svg"><g id="013---Baking" fill="none"><path id="Shape" d="m42.782 48.491c2.863 1.506 4.574 5.579 6.264 8.245.9937443 1.5744039 2.8010269 2.4409878 4.6508329 2.2300534s3.4155946-1.4621515 4.029376-3.2198625c.6137813-1.757711.1672064-3.7116324-1.1492089-5.0281909-.2550806-.2538956-.5370798-.4792266-.841-.672-2.666-1.69-6.739-3.4-8.245-6.264l-32.273-32.273c-2.863-1.509-4.574-5.579-6.264-8.245-.19277336-.30392022-.41810444-.5859194-.672-.841-1.31655847-1.3164153-3.27047994-1.7629902-5.02819093-1.14920885s-3.00892808 2.17956997-3.21986249 4.02937594c-.21093441 1.84980598.65564948 3.65708863 2.23005342 4.65083291 2.666 1.69 6.739 3.4 8.245 6.264z" fill="#cbb292"/><path id="Shape" d="m49.51 39.19c.77.78-1.12 3.95-4.25 7.07s-6.29 5.02-7.07 4.25l-11.51-11.51-6.68-6.68-11.51-11.51c-.56-.57.3-2.42 2.02-4.59 1.3989076-1.7322457 2.9777543-3.3110924 4.71-4.71 2.17-1.72 4.02-2.58 4.59-2.02l8.38 8.38z" fill="#a56a43"/><g fill="#a5a5a4"><path id="Shape" d="m28.07 36.4c-.486807-.0008705-.9022573-.3521686-.9840097-.8320627-.0817525-.479894.1939492-.9489334.6530097-1.1109373l10.7-3.754c.0404153-.0223247.0825493-.0413853.126-.057l2.18-.76.056-.019c.5000699-.1770428 1.0513665.0672101 1.2561911.5565576s-.0081081 1.0534814-.4851911 1.2854424c-.0522941.0240682-.1060699.0447769-.161.062h-.008l-2.105.734c-.0396178.02128-.0807254.0396614-.123.055l-10.775 3.783c-.1059199.0377738-.2175461.0570547-.33.057z"/><path id="Shape" d="m27.77 34.94c-.406622-.0000867-.7727035-.2463813-.926-.623-.0863219-.218869-.1924282-.429408-.317-.629-.018-.0293333-.035-.0593333-.051-.09-.0302534-.0593593-.0686215-.1142189-.114-.163-.0279968-.0317266-.0540446-.0651212-.078-.1-.0660983-.0923518-.1382571-.1802118-.216-.263-.0354965-.027143-.0689223-.056892-.1-.089-.0983978-.1046411-.2061823-.2000404-.322-.285-.0759507-.0675983-.1591193-.1266212-.248-.176-.0313333-.016-.0613333-.033-.09-.051-.1886025-.1213336-.3897717-.2219182-.6-.3-.3672583-.1494815-.7577796-.2337447-1.154-.249-.3164401-.0137151-.6076735-.1765328-.7850926-.438916-.1774191-.2623831-.2200445-.5933054-.1149074-.892084l4.569-13v-.01c.006-.019.013-.038.02-.057.883946-2.5555706 2.0006318-5.0245976 3.336-7.376 1.1703028-2.0916353 2.5936768-4.0312259 4.238-5.775 2.635124-2.65376869 6.2181724-4.14952407 9.958-4.157h.07c3.7105775-.0051406 7.269636 1.47140369 9.8868332 4.10174414 2.6171972 2.63034046 4.0758946 6.19675066 4.0521668 9.90725586-.0118907 3.7394446-1.5111596 7.3204918-4.167 9.953-1.7425207 1.6455446-3.6823124 3.0687303-5.775 4.237-2.3487263 1.3432126-4.8194329 2.4608733-7.379 3.338-.5208045.1839108-1.0920892-.0891955-1.276-.61s.0891955-1.0920892.61-1.276c2.4415924-.8354906 4.7984716-1.9005897 7.039-3.181 1.9432051-1.0803291 3.7452351-2.3970034 5.365-3.92 2.2822733-2.2615704 3.5713466-5.3380051 3.583-8.551.0213369-3.1785147-1.227703-6.23390372-3.4695685-8.48722354-2.2418654-2.25331983-5.2908493-3.51791461-8.4694315-3.51277646h-.06c-3.2121186.01214263-6.287365 1.30204066-8.547 3.585-1.5218786 1.62176215-2.8393575 3.42385018-3.923 5.366-1.2734862 2.2424525-2.3386142 4.5969812-3.182 7.034-.006.018-.012.037-.019.055l-4.176 11.886c.169.049.335.107.5.172.3179226.1184037.6231261.2684928.911.448.1960029.1048113.3800764.2305446.549.375.1585508.1186294.3079708.2489959.447.39.0260631.0207408.0507798.0431193.074.067.1689956.1678152.3244787.3487106.465.541.1101252.126125.2085318.2620199.294.406l7.476-4.407c.029-.021.061-.043.08-.054l1.85-1.09.1-.059c.3179664-.1629131.6986925-.143818.9987626.0500924s.4738963.5331765.456.89-.2247962.6769945-.5427626.8399076l-1.807 1.067-.081.055-8.43 4.968c-.1537717.0912439-.3291956.139589-.508.14z"/><path id="Shape" d="m26.71 33.3c-.4049421.0011299-.7705929-.2420656-.9261071-.6159569-.1555143-.3738913-.0701896-.804663.2161071-1.0910431l27.291-27.3c.2510745-.25995658.6228779-.3642126.9725073-.27269716.3496295.09151544.6226744.3645604.7141899.71418984.0915154.34962943-.0127406.72143285-.2726972.97250732l-27.29 27.3c-.1866279.1876192-.4403665.2930736-.705.293z"/></g><path id="Shape" d="m27.77 34.94c-.406622-.0000867-.7727035-.2463813-.926-.623-.0859809-.2185233-.1917541-.428731-.316-.628-.0188829-.0294212-.0362391-.0597947-.052-.091-.0302534-.0593593-.0686215-.1142189-.114-.163-.0279968-.0317266-.0540446-.0651212-.078-.1-.0660983-.0923518-.1382571-.1802118-.216-.263-.0354965-.027143-.0689223-.056892-.1-.089-.0983978-.1046411-.2061823-.2000404-.322-.285-.0759507-.0675983-.1591193-.1266212-.248-.176-.0312053-.0157609-.0615788-.0331171-.091-.052-.1888239-.1193302-.389992-.2179027-.6-.294-.278028-.1026675-.4961913-.3233742-.5956295-.6025735s-.0699058-.588124.0806295-.8434265l6.09-10.33c1.2974742-2.2266651 2.7204347-4.3777995 4.262-6.443 1.3821352-1.878233 2.8895666-3.6609577 4.512-5.336 5.6-5.6 12.478-7.5 15.644-4.33 1.6 1.6 1.967 4.163 1.036 7.221-1.0886474 3.1967192-2.9288877 6.0853408-5.366 8.423-1.673605 1.6261143-3.4575159 3.1347034-5.339 4.515-2.0484852 1.5291266-4.1818988 2.9410524-6.39 4.229l-.1.059-1.759 1.039-.079.052-8.43 4.97c-.1522121.090737-.3258019.1393973-.503.141zm.112-2.806c.1101252.126125.2085318.2620199.294.406l7.478-4.409c.029-.021.06-.042.078-.052l1.85-1.09.1-.059c2.1260476-1.243951 4.1809179-2.6057408 6.155-4.079 1.8050432-1.3236917 3.5170694-2.7697591 5.124-4.328 2.2058728-2.104849 3.8748662-4.7079574 4.867-7.591.7-2.317.514-4.172-.537-5.224-2.291-2.295-8.163-.308-12.814 4.33-1.5558318 1.6077715-3.0014462 3.3186546-4.327 5.121-1.485015 1.9907612-2.8565278 4.0637221-4.108 6.209l-5.577 9.459c.1518224.0911204.2959662.1944625.431.309.1585508.1186294.3079708.2489959.447.39.0260631.0207408.0507798.0431193.074.067.1689956.1678152.3244787.3487106.465.541z" fill="#d1d4d1"/><path id="Shape" d="m27.6 38.077c0 .01 0 .01-.01.02l-3.13 3.13c-.03.03-.06.07-.09.1l-12.12 12.11-3.23 3.23c-1.34530392 1.3730604-3.38833584 1.7942453-5.16700062 1.0652124-1.77866479-.729033-2.93837267-2.4629459-2.93299938-4.3852124.00843375-1.2650676.51502587-2.4758587 1.41-3.37l3.23-3.23 12.12-12.11 3.22-3.23c.01-.01.01-.01.02-.01 1.8456342-1.8532737 4.8433344-1.862222 6.7-.02h.01c1.8405776 1.8589664 1.8271509 4.8575906-.03 6.7z" fill="#2980ba"/><path id="Shape" d="m24.46 41.227c-.03.03-.06.07-.09.1l-12.12 12.11c-1.32 1.32-3.88.89-5.73-.96-.85490916-.8264279-1.43748385-1.8939001-1.67-3.06-.21300786-.9525319.05199345-1.9490861.71-2.67l12.12-12.11c1.443-1.456 4.078-.682 5.72.96.8556267.8258811 1.4383319 1.8935925 1.67 3.06.1951715.9048278-.0290251 1.8493938-.61 2.57z" fill="#2fa8cc"/></g></svg>