<svg viewBox="-43 0 512 512" xmlns="http://www.w3.org/2000/svg"><g fill="#d8d6d4"><path d="m50.308594 67.121094h-33.773438c-9.132812 0-16.535156-7.402344-16.535156-16.535156 0-9.132813 7.402344-16.535157 16.535156-16.535157h33.773438c9.132812 0 16.535156 7.402344 16.535156 16.535157 0 9.132812-7.402344 16.535156-16.535156 16.535156zm0 0"/><path d="m50.308594 149.285156h-33.773438c-9.132812 0-16.535156-7.402344-16.535156-16.535156s7.402344-16.535156 16.535156-16.535156h33.773438c9.132812 0 16.535156 7.402344 16.535156 16.535156s-7.402344 16.535156-16.535156 16.535156zm0 0"/><path d="m50.308594 231.453125h-33.773438c-9.132812 0-16.535156-7.402344-16.535156-16.535156 0-9.132813 7.402344-16.535157 16.535156-16.535157h33.773438c9.132812 0 16.535156 7.402344 16.535156 16.535157 0 9.132812-7.402344 16.535156-16.535156 16.535156zm0 0"/><path d="m50.308594 313.617188h-33.773438c-9.132812 0-16.535156-7.402344-16.535156-16.535157 0-9.132812 7.402344-16.535156 16.535156-16.535156h33.773438c9.132812 0 16.535156 7.402344 16.535156 16.535156 0 9.132813-7.402344 16.535157-16.535156 16.535157zm0 0"/><path d="m50.308594 395.78125h-33.773438c-9.132812 0-16.535156-7.402344-16.535156-16.535156 0-9.128906 7.402344-16.53125 16.535156-16.53125h33.773438c9.132812 0 16.535156 7.402344 16.535156 16.53125 0 9.132812-7.402344 16.535156-16.535156 16.535156zm0 0"/><path d="m50.308594 477.949219h-33.773438c-9.132812 0-16.535156-7.402344-16.535156-16.535157 0-9.132812 7.402344-16.535156 16.535156-16.535156h33.773438c9.132812 0 16.535156 7.402344 16.535156 16.535156 0 9.132813-7.402344 16.535157-16.535156 16.535157zm0 0"/></g><path d="m414.175781 512h-370.425781c-6.683594 0-12.101562-5.417969-12.101562-12.097656v-487.804688c.003906-6.679687 5.417968-12.097656 12.101562-12.097656h370.421875c6.683594 0 12.101563 5.417969 12.101563 12.097656v487.804688c0 6.679687-5.417969 12.097656-12.097657 12.097656zm0 0" fill="#e88c38"/><path d="m414.175781 0h-48.046875v512h48.046875c6.679688 0 12.097657-5.417969 12.097657-12.097656v-487.804688c0-6.679687-5.417969-12.097656-12.097657-12.097656zm0 0" fill="#d38231"/><path d="m243.3125 114.246094h-28.699219l-2.875-27.453125c-.550781-5.261719 3.578125-9.84375 8.867188-9.84375h16.710937c5.292969 0 9.417969 4.582031 8.867188 9.84375zm0 0" fill="#fff"/><path d="m338.703125 226.566406h-219.484375v-9.324218c0-60.605469 49.132812-109.742188 109.742188-109.742188 60.609374 0 109.742187 49.136719 109.742187 109.742188zm0 0" fill="#e2e2e2"/><path d="m228.960938 107.5c-10.425782 0-20.515626 1.457031-30.070313 4.171875 45.988281 13.074219 79.667969 55.390625 79.667969 105.570313v9.324218h60.144531v-9.324218c0-60.605469-49.132813-109.742188-109.742187-109.742188zm0 0" fill="#c9c9c9"/><path d="m353.9375 218.609375h-249.949219c-2.40625 0-4.355469 1.949219-4.355469 4.355469v16.140625c0 2.40625 1.949219 4.355469 4.355469 4.355469h249.949219c2.40625 0 4.355469-1.949219 4.355469-4.355469v-16.140625c0-2.40625-1.949219-4.355469-4.355469-4.355469zm0 0" fill="#d8d6d4"/><path d="m132.070312 384.519531c-1.019531 1.851563-2.59375 2.410157-4.078124 2.410157-1.480469 0-2.964844-.558594-3.980469-2.410157l-10.65625-20.007812v40.574219c0 2.5-3.054688 3.796874-6.019531 3.796874-3.058594 0-6.023438-1.296874-6.023438-3.796874v-57.898438c0-4.449219 2.964844-6.023438 6.023438-6.023438 4.351562 0 6.296874.925782 9.355468 6.394532l11.394532 20.75 11.394531-20.75c3.054687-5.464844 5.09375-6.394532 9.449219-6.394532 3.054687 0 6.019531 1.574219 6.019531 6.023438v57.898438c0 2.5-3.054688 3.796874-6.019531 3.796874-3.058594 0-6.023438-1.296874-6.023438-3.796874v-39.835938zm0 0" fill="#fccf3f"/><path d="m188.480469 370.253906h14.082031c2.410156 0 3.796875 2.316406 3.796875 4.816406 0 2.128907-1.203125 4.632813-3.796875 4.632813h-14.082031v18.617187h26.21875c2.40625 0 3.796875 2.503907 3.796875 5.375 0 2.5-1.203125 5.1875-3.796875 5.1875h-32.980469c-2.6875 0-5.28125-1.296874-5.28125-3.796874v-60.125c0-2.5 2.59375-3.796876 5.28125-3.796876h32.980469c2.59375 0 3.796875 2.6875 3.796875 5.1875 0 2.871094-1.390625 5.371094-3.796875 5.371094h-26.21875zm0 0" fill="#fccf3f"/><path d="m267.871094 405.085938-19.917969-37.242188v37.242188c0 2.5-3.058594 3.796874-6.023437 3.796874-3.058594 0-6.023438-1.296874-6.023438-3.796874v-60.121094c0-2.597656 2.964844-3.800782 6.023438-3.800782 4.355468 0 6.113281.925782 8.988281 6.394532l17.878906 34.554687v-37.242187c0-2.59375 2.964844-3.707032 6.019531-3.707032 2.964844 0 6.023438 1.113282 6.023438 3.707032v60.214844c0 2.5-3.058594 3.796874-6.023438 3.796874-2.871094 0-5.371094-.925781-6.945312-3.796874zm0 0" fill="#fccf3f"/><path d="m334.472656 344.871094c0-2.59375 2.964844-3.707032 6.023438-3.707032 2.964844 0 6.019531 1.113282 6.019531 3.707032v43.355468c0 15.46875-9.820313 21.210938-22.234375 21.210938-12.503906 0-22.230469-5.742188-22.230469-21.210938v-43.355468c0-2.59375 2.964844-3.707032 6.019531-3.707032 2.964844 0 6.023438 1.113282 6.023438 3.707032v43.355468c0 7.222657 3.796875 10.652344 10.191406 10.652344 6.390625 0 10.191406-3.429687 10.191406-10.652344v-43.355468zm0 0" fill="#fccf3f"/><path d="m358.292969 307.777344h-258.660157c-4.324218 0-7.824218 3.5-7.824218 7.820312 0 4.320313 3.503906 7.824219 7.824218 7.824219h258.660157c4.320312 0 7.820312-3.503906 7.820312-7.824219 0-4.320312-3.5-7.820312-7.820312-7.820312zm0 0" fill="#efa335"/><path d="m358.292969 427.226562h-258.660157c-4.324218 0-7.824218 3.503907-7.824218 7.824219 0 4.316407 3.503906 7.820313 7.824218 7.820313h258.660157c4.320312 0 7.820312-3.503906 7.820312-7.820313 0-4.320312-3.5-7.824219-7.820312-7.824219zm0 0" fill="#efa335"/></svg>