<svg height="512" viewBox="0 0 58 58" width="512" xmlns="http://www.w3.org/2000/svg"><g id="034---Baking-Cookies" fill="none"><path id="Shape" d="m39 51h14v6c0 .5522847-.4477153 1-1 1h-12c-.5522847 0-1-.4477153-1-1z" fill="#c03a2b"/><path id="Shape" d="m54 50v2c0 1.1045695-.8954305 2-2 2h-13c-.6472464.0002482-1.2545971-.3127424-1.63-.84l-2.22-3.16 6.85-2z" fill="#fb7b76"/><path id="Shape" d="m54 0h-50c-2.209139 0-4 1.790861-4 4v32c0 2.209139 1.790861 4 4 4h25c.0247445-1.5474501.9271033-2.9462368 2.3267213-3.6067545 1.399618-.6605178 3.0530206-.4678644 4.2632787.4967545l1.28 1.11c.1991021.1757944.4823338.2195754.7252224.1121026s.4009723-.3465262.4047776-.6121026v-5.23c-.0633394-4.2888032 3.196876-7.8981716 7.47-8.27 2.21197-.146871 4.3857139.6306886 6.002686 2.1471923s2.5321846 3.6359724 2.527314 5.8528077v8c2.209139 0 4-1.790861 4-4v-32c0-2.209139-1.790861-4-4-4z" fill="#95a5a5"/><path id="Shape" d="m52.28 40c2.1299684-.0813614 3.7931549-1.869734 3.72-4v-32c.0731549-2.13026602-1.5900316-3.9186386-3.72-4h-46.56c-2.12996837.0813614-3.79315488 1.86973398-3.72 4v32c-.07315488 2.130266 1.59003163 3.9186386 3.72 4z" fill="#bdc3c7"/><g fill="#95a5a5"><path id="Shape" d="m53 21h-48c-.55228475 0-1-.4477153-1-1s.44771525-1 1-1h48c.5522847 0 1 .4477153 1 1s-.4477153 1-1 1z"/><circle id="Oval" cx="11" cy="30" r="6"/><circle id="Oval" cx="11" cy="10" r="6"/></g><path id="Shape" d="m9 31c-1.91 0-1-4 2-4 .5522847 0 1 .4477153 1 1s-.4477153 1-1 1-1 .4477153-1 1-.44771525 1-1 1z" fill="#7f8c8d"/><circle id="Oval" cx="29" cy="30" fill="#95a5a5" r="6"/><path id="Shape" d="m27 31c-1.91 0-1-4 2-4 .5522847 0 1 .4477153 1 1s-.4477153 1-1 1-1 .4477153-1 1-.4477153 1-1 1z" fill="#7f8c8d"/><circle id="Oval" cx="47" cy="10" fill="#95a5a5" r="6"/><circle id="Oval" cx="29" cy="10" fill="#95a5a5" r="6"/><path id="Shape" d="m54 32 .0000193 18h-18.8500193l-5.39-7.58c-1.1629237-1.6475808-.9402459-3.8990238.5228956-5.2868749 1.4631415-1.3878512 3.7231993-1.4913873 5.3071044-.2431251l1.28 1.11c.1991021.1757944.4823338.2195754.7252224.1121026s.4009723-.3465262.4047776-.6121026v-5.23c-.0633394-4.2888032 3.196876-7.8981716 7.47-8.27 2.21197-.146871 4.3857139.6306886 6.002686 2.1471923s2.5321846 3.6359724 2.527314 5.8528077z" fill="#e64c3c"/><path id="Shape" d="m9 11c-1.91 0-1-4 2-4 .5522847 0 1 .44771525 1 1s-.4477153 1-1 1-1 .44771525-1 1c0 .5522847-.44771525 1-1 1z" fill="#7f8c8d"/><path id="Shape" d="m27 11c-1.91 0-1-4 2-4 .5522847 0 1 .44771525 1 1s-.4477153 1-1 1-1 .44771525-1 1c0 .5522847-.4477153 1-1 1z" fill="#7f8c8d"/><path id="Shape" d="m45 11c-1.91 0-1-4 2-4 .5522847 0 1 .44771525 1 1s-.4477153 1-1 1-1 .44771525-1 1c0 .5522847-.4477153 1-1 1z" fill="#7f8c8d"/></g></svg>