<svg height="512pt" viewBox="0 -94 512 512" width="512pt" xmlns="http://www.w3.org/2000/svg"><path d="m506.121094 184.828125-48.472656 138.910156h-403.296876l-48.472656-138.910156zm0 0" fill="#c06100"/><path d="m485.179688 178.480469h-458.359376c0-48.449219 24.378907-93.742188 68.628907-127.519531 43.050781-32.859376 100.070312-50.960938 160.550781-50.960938s117.5 18.101562 160.550781 50.960938c44.25 33.777343 68.628907 79.070312 68.628907 127.519531zm0 0" fill="#ffdba9"/><path d="m256 178.480469v-178.480469c60.480469 0 117.5 18.101562 160.550781 50.960938 44.25 33.777343 68.628907 79.070312 68.628907 127.519531zm0 0" fill="#ffbdad"/><path d="m506.121094 184.828125-48.472656 138.910156h-201.648438v-138.910156zm0 0" fill="#9a4c00"/><path d="m183.75 44.960938h29.5v29.5h-29.5zm0 0" fill="#ff9a00"/><path d="m241.25 44.960938h29.5v29.5h-29.5zm0 0" fill="#ff9a00"/><path d="m298.75 44.960938h29.5v29.5h-29.5zm0 0" fill="#ff9a00"/><g fill="#fff5cb"><path d="m130.339844 323.738281h-31.160156l-31.105469-110.9375 29.617187-5.480469zm0 0"/><path d="m200.519531 323.738281h-30.289062l-15.460938-110.289062 29.710938-4.160157zm0 0"/><path d="m241 211.371094h30v112.367187h-30zm0 0"/><path d="m357.230469 213.449219-15.460938 110.289062h-30.289062l16.039062-114.449219zm0 0"/><path d="m443.191406 215.421875-30.371094 108.316406h-31.160156l32.648438-116.417969zm0 0"/></g><path d="m512 172.179688c0 23.011718-18.648438 41.660156-41.660156 41.660156h-428.679688c-11.5 0-21.921875-4.660156-29.460937-12.199219-7.539063-7.539063-12.199219-17.949219-12.199219-29.460937 0-11.78125 4.78125-22.449219 12.5-30.167969 7.71875-7.722657 18.378906-12.492188 30.171875-12.492188 23.558594 0 42.65625 19.101563 42.65625 42.660157 0-23.558594 19.113281-42.660157 42.671875-42.660157s42.671875 19.101563 42.671875 42.660157c0-11.78125 4.769531-22.449219 12.488281-30.167969 7.71875-7.722657 18.390625-12.492188 30.167969-12.492188 23.570313 0 42.671875 19.101563 42.671875 42.660157 0-11.78125 4.78125-22.449219 12.5-30.167969 7.71875-7.722657 18.378906-12.492188 30.171875-12.492188 23.558594 0 42.65625 19.101563 42.65625 42.660157 0-23.558594 19.113281-42.660157 42.671875-42.660157s42.671875 19.101563 42.671875 42.660157c0-23.558594 19.097656-42.660157 42.65625-42.660157 11.792969 0 22.453125 4.769531 30.171875 12.492188 7.71875 7.71875 12.5 18.386719 12.5 30.167969zm0 0" fill="#ff9a00"/><path d="m256 211.371094h15v112.367187h-15zm0 0" fill="#ffdba9"/><path d="m327.519531 209.289062 29.710938 4.160157-15.460938 110.289062h-30.289062zm0 0" fill="#ffdba9"/><path d="m444.324219 211.371094-31.503907 112.367187h-31.160156l32.648438-116.417969zm0 0" fill="#ffdba9"/><path d="m256 44.960938h14.75v29.5h-14.75zm0 0" fill="#e67500"/><path d="m298.75 44.960938h29.5v29.5h-29.5zm0 0" fill="#e67500"/><path d="m512 172.179688c0 23.011718-18.648438 41.660156-41.660156 41.660156h-214.339844v-41.660156c0-11.78125 4.78125-22.449219 12.5-30.167969 7.71875-7.722657 18.378906-12.492188 30.171875-12.492188 23.558594 0 42.65625 19.101563 42.65625 42.660157 0-23.558594 19.113281-42.660157 42.671875-42.660157s42.671875 19.101563 42.671875 42.660157c0-23.558594 19.097656-42.660157 42.65625-42.660157 11.792969 0 22.453125 4.769531 30.171875 12.492188 7.71875 7.71875 12.5 18.386719 12.5 30.167969zm0 0" fill="#e67500"/></svg>