<svg height="512pt" viewBox="0 -95 512 512" width="512pt" xmlns="http://www.w3.org/2000/svg"><path d="m196.488281 32.828125c0 18.105469-14.730469 32.835937-32.835937 32.835937-18.097656 0-32.828125-14.730468-32.828125-32.835937 0-18.097656 14.730469-32.828125 32.828125-32.828125 18.105468 0 32.835937 14.730469 32.835937 32.828125zm0 0" fill="#ff7a53"/><path d="m196.488281 32.828125c0 18.105469-14.730469 32.835937-32.835937 32.835937v-65.664062c18.105468 0 32.835937 14.730469 32.835937 32.828125zm0 0" fill="#ff3b62"/><path d="m256 32.828125c0 18.105469-14.730469 32.835937-32.835938 32.835937-18.097656 0-32.828124-14.730468-32.828124-32.835937 0-18.097656 14.730468-32.828125 32.828124-32.828125 18.105469 0 32.835938 14.730469 32.835938 32.828125zm0 0" fill="#ff7a53"/><path d="m256 32.828125c0 18.105469-14.730469 32.835937-32.835938 32.835937v-65.664062c18.105469 0 32.835938 14.730469 32.835938 32.828125zm0 0" fill="#ff3b62"/><path d="m251.75 48.214844v17.449218h41.453125c25.480469 0 46.21875-20.734374 46.21875-46.21875v-17.445312h-41.457031c-25.488282 0-46.214844 20.734375-46.214844 46.214844zm0 0" fill="#00ad00"/><path d="m251.75 48.214844v17.449218l87.671875-63.664062h-41.457031c-25.488282 0-46.214844 20.734375-46.214844 46.214844zm0 0" fill="#60dd4e"/><path d="m512 183.660156c0 33.179688-13.128906 64.167969-36.980469 87.269532l-4.359375 4.21875h-281.660156v-15l-28.398438-103.867188-17.542968-64.121094h-4.097656v-30h251.539062c58.199219 0 106.960938 41.128906 118.761719 95.828125 1.796875 8.28125 2.738281 16.871094 2.738281 25.671875zm0 0" fill="#e67500"/><path d="m509.261719 157.988281c-20.089844 9.671875-44 7.0625-62.042969-7.816406l-.308594-.261719c-10.582031-8.730468-25.359375-8.769531-35.960937-.121094l-.929688.761719c-10.871093 8.871094-23.871093 13.300781-36.871093 13.300781-13.109376 0-26.207032-4.5-37.117188-13.5l-.53125-.441406c-10.578125-8.71875-25.359375-8.75-35.96875-.082031l-.742188.613281c-20.339843 16.628906-48.117187 17.707032-69.429687 3.289063l-68.757813 2.550781-17.542968-64.121094h-4.097656v-30h251.539062c58.199219 0 106.960938 41.128906 118.761719 95.828125zm0 0" fill="#ffdba9"/><path d="m260.460938 183.660156c0 33.179688-13.140626 64.167969-36.980469 87.269532l-4.359375 4.21875h-160.3125l-4.367188-4.21875c-23.839844-23.101563-36.972656-54.089844-36.972656-87.269532 0-66.988281 54.5-121.5 121.492188-121.5 66.988281 0 121.5 54.511719 121.5 121.5zm0 0" fill="#c06100"/><path d="m260.460938 183.660156c0 33.179688-13.140626 64.167969-36.980469 87.269532l-4.359375 4.21875h-80.160156v-212.988282c66.988281 0 121.5 54.511719 121.5 121.5zm0 0" fill="#9a4c00"/><path d="m138.960938 246.421875h10.507812v30.328125h-10.507812zm0 0" fill="#ffbdad"/><path d="m203.460938 176.058594v4.921875c0 26.328125-21 47.757812-46.832032 47.757812-6.390625 0-12.410156-1.648437-17.667968-4.558593-11.582032-6.398438-19.449219-18.890626-19.449219-33.210938h30.328125c0 4.101562 3.050781 7.441406 6.789062 7.441406 9.101563 0 16.511719-7.820312 16.511719-17.429687v-4.921875c0-9.609375-7.410156-17.429688-16.511719-17.429688h-24.660156c-15.679688 0-28.4375 13.332032-28.4375 29.722656v28.347657c0 16.390625 12.757812 29.722656 28.4375 29.722656h17.5v30.328125h-17.5c-32.410156 0-58.769531-26.941406-58.769531-60.050781v-28.347657c0-33.113281 26.359375-60.050781 58.769531-60.050781h24.660156c25.832032 0 46.832032 21.429688 46.832032 47.757813zm0 0" fill="#ffdba9"/><path d="m203.460938 176.058594v4.921875c0 26.328125-21 47.757812-46.832032 47.757812-6.390625 0-12.410156-1.648437-17.667968-4.558593v-33.210938h10.878906c0 4.101562 3.050781 7.441406 6.789062 7.441406 9.101563 0 16.511719-7.820312 16.511719-17.429687v-4.921875c0-9.609375-7.410156-17.429688-16.511719-17.429688h-17.667968v-30.328125h17.667968c25.832032 0 46.832032 21.429688 46.832032 47.757813zm0 0" fill="#ffbdad"/><path d="m512 246.269531v25.621094c0 27.289063-22.210938 49.5-49.5 49.5h-413c-27.289062 0-49.5-22.210937-49.5-49.5v-25.621094zm0 0" fill="#ffdba9"/><path d="m512 246.269531v25.621094c0 27.289063-22.210938 49.5-49.5 49.5h-202.039062v-75.121094zm0 0" fill="#ffbdad"/></svg>