<?xml version="1.0" ?>
<!-- Uploaded to: SVG Repo, www.svgrepo.com, Generator: SVG Repo Mixer Tools -->
<svg width="800px" height="800px" viewBox="0 0 64 64" xmlns="http://www.w3.org/2000/svg">
<defs>
<style>.cls-1{fill:#fccb7e;}.cls-2{fill:#f478af;}.cls-3{fill:#f693bf;}.cls-4{fill:#fdd598;}.cls-5{fill:#d16796;}</style>
</defs>
<title/>
<g data-name="Layer 25" id="Layer_25">
<path class="cls-1" d="M32,0A32,32,0,1,0,64,32,32.036,32.036,0,0,0,32,0Zm0,42A10,10,0,1,1,42,32,10.011,10.011,0,0,1,32,42Z"/>
<path class="cls-2" d="M61,32a13.024,13.024,0,0,0-6.055-10.983A9.819,9.819,0,0,0,55,20,11.013,11.013,0,0,0,44,9a9.881,9.881,0,0,0-1.018.055,12.987,12.987,0,0,0-21.964,0A9.881,9.881,0,0,0,20,9,11.013,11.013,0,0,0,9,20a9.819,9.819,0,0,0,.055,1.017,12.987,12.987,0,0,0,0,21.965A9.852,9.852,0,0,0,9,44,11.013,11.013,0,0,0,20,55a9.881,9.881,0,0,0,1.018-.055,12.987,12.987,0,0,0,21.964,0A9.881,9.881,0,0,0,44,55,11.013,11.013,0,0,0,55,44a9.852,9.852,0,0,0-.055-1.018A13.023,13.023,0,0,0,61,32ZM42,32A10,10,0,1,1,32,22,10.011,10.011,0,0,1,42,32Z"/>
<path class="cls-2" d="M59,32a13.024,13.024,0,0,0-6.055-10.983A9.819,9.819,0,0,0,53,20,11.013,11.013,0,0,0,42,9a9.881,9.881,0,0,0-1.018.055,12.987,12.987,0,0,0-21.964,0A9.881,9.881,0,0,0,18,9,11.013,11.013,0,0,0,7,20a9.819,9.819,0,0,0,.055,1.017,12.987,12.987,0,0,0,0,21.965A9.852,9.852,0,0,0,7,44,11.013,11.013,0,0,0,18,55a9.881,9.881,0,0,0,1.018-.055,12.987,12.987,0,0,0,21.964,0A9.881,9.881,0,0,0,42,55,11.013,11.013,0,0,0,53,44a9.852,9.852,0,0,0-.055-1.018A13.023,13.023,0,0,0,59,32ZM40,32A10,10,0,1,1,30,22,10.011,10.011,0,0,1,40,32Z"/>
<path class="cls-3" d="M19.021,9.05l-.051,0,.048,0Z"/>
<path class="cls-3" d="M61,32a13.024,13.024,0,0,0-6.055-10.983A9.819,9.819,0,0,0,55,20,11.013,11.013,0,0,0,44,9c-.308,0-.631.019-.97.052A11.012,11.012,0,0,1,53,20a9.819,9.819,0,0,1-.055,1.017,12.987,12.987,0,0,1,0,21.965A9.852,9.852,0,0,1,53,44a11.012,11.012,0,0,1-9.97,10.948c.339.033.662.052.97.052A11.013,11.013,0,0,0,55,44a9.852,9.852,0,0,0-.055-1.018A13.023,13.023,0,0,0,61,32Z"/>
<path class="cls-3" d="M40.982,9.055A9.881,9.881,0,0,1,42,9c.33,0,.656.021.979.05A13.021,13.021,0,0,0,32,3c-.337,0-.667.038-1,.064A13.009,13.009,0,0,1,40.982,9.055Z"/>
<path class="cls-3" d="M19.018,54.945l-.048,0,.051,0Z"/>
<path class="cls-3" d="M42,55a9.881,9.881,0,0,1-1.018-.055A13.009,13.009,0,0,1,31,60.936c.333.026.663.064,1,.064a13.021,13.021,0,0,0,10.979-6.05C42.656,54.979,42.33,55,42,55Z"/>
<path class="cls-4" d="M32,0c-.335,0-.667.015-1,.025a31.99,31.99,0,0,1,0,63.95c.333.01.665.025,1,.025A32,32,0,0,0,32,0Z"/>
<line class="cls-5" x1="31" x2="33" y1="8" y2="8"/>
<path class="cls-5" d="M33,9H31a1,1,0,0,1,0-2h2a1,1,0,0,1,0,2Z"/>
<line class="cls-5" x1="25" x2="27" y1="12" y2="12"/>
<path class="cls-5" d="M27,13H25a1,1,0,0,1,0-2h2a1,1,0,0,1,0,2Z"/>
<line class="cls-5" x1="37" x2="39" y1="12" y2="12"/>
<path class="cls-5" d="M39,13H37a1,1,0,0,1,0-2h2a1,1,0,0,1,0,2Z"/>
<line class="cls-5" x1="16" x2="18" y1="16" y2="16"/>
<path class="cls-5" d="M18,17H16a1,1,0,0,1,0-2h2a1,1,0,0,1,0,2Z"/>
<line class="cls-5" x1="22" x2="24" y1="20" y2="20"/>
<path class="cls-5" d="M24,21H22a1,1,0,0,1,0-2h2a1,1,0,0,1,0,2Z"/>
<line class="cls-5" x1="48" x2="46" y1="16" y2="16"/>
<path class="cls-5" d="M48,17H46a1,1,0,0,1,0-2h2a1,1,0,0,1,0,2Z"/>
<line class="cls-5" x1="42" x2="40" y1="20" y2="20"/>
<path class="cls-5" d="M42,21H40a1,1,0,0,1,0-2h2a1,1,0,0,1,0,2Z"/>
<line class="cls-5" x1="31" x2="33" y1="16" y2="16"/>
<path class="cls-5" d="M33,17H31a1,1,0,0,1,0-2h2a1,1,0,0,1,0,2Z"/>
<path class="cls-5" d="M18,25H16a1,1,0,0,1,0-2h2a1,1,0,0,1,0,2Z"/>
<path class="cls-5" d="M12,29H10a1,1,0,0,1,0-2h2a1,1,0,0,1,0,2Z"/>
<path class="cls-5" d="M18,33H16a1,1,0,0,1,0-2h2a1,1,0,0,1,0,2Z"/>
<line class="cls-5" x1="46" x2="48" y1="24" y2="24"/>
<path class="cls-5" d="M48,25H46a1,1,0,0,1,0-2h2a1,1,0,0,1,0,2Z"/>
<line class="cls-5" x1="52" x2="54" y1="28" y2="28"/>
<path class="cls-5" d="M54,29H52a1,1,0,0,1,0-2h2a1,1,0,0,1,0,2Z"/>
<line class="cls-5" x1="31" x2="33" y1="56" y2="56"/>
<path class="cls-5" d="M33,57H31a1,1,0,0,1,0-2h2a1,1,0,0,1,0,2Z"/>
<line class="cls-5" x1="25" x2="27" y1="52" y2="52"/>
<path class="cls-5" d="M27,53H25a1,1,0,0,1,0-2h2a1,1,0,0,1,0,2Z"/>
<line class="cls-5" x1="37" x2="39" y1="52" y2="52"/>
<path class="cls-5" d="M39,53H37a1,1,0,0,1,0-2h2a1,1,0,0,1,0,2Z"/>
<line class="cls-5" x1="16" x2="18" y1="48" y2="48"/>
<path class="cls-5" d="M18,49H16a1,1,0,0,1,0-2h2a1,1,0,0,1,0,2Z"/>
<line class="cls-5" x1="22" x2="24" y1="44" y2="44"/>
<path class="cls-5" d="M24,45H22a1,1,0,0,1,0-2h2a1,1,0,0,1,0,2Z"/>
<line class="cls-5" x1="48" x2="46" y1="48" y2="48"/>
<path class="cls-5" d="M48,49H46a1,1,0,0,1,0-2h2a1,1,0,0,1,0,2Z"/>
<line class="cls-5" x1="42" x2="40" y1="44" y2="44"/>
<path class="cls-5" d="M42,45H40a1,1,0,0,1,0-2h2a1,1,0,0,1,0,2Z"/>
<line class="cls-5" x1="31" x2="33" y1="48" y2="48"/>
<path class="cls-5" d="M33,49H31a1,1,0,0,1,0-2h2a1,1,0,0,1,0,2Z"/>
<path class="cls-5" d="M18,41H16a1,1,0,0,1,0-2h2a1,1,0,0,1,0,2Z"/>
<path class="cls-5" d="M12,37H10a1,1,0,0,1,0-2h2a1,1,0,0,1,0,2Z"/>
<line class="cls-5" x1="46" x2="48" y1="40" y2="40"/>
<path class="cls-5" d="M48,41H46a1,1,0,0,1,0-2h2a1,1,0,0,1,0,2Z"/>
<line class="cls-5" x1="52" x2="54" y1="36" y2="36"/>
<path class="cls-5" d="M54,37H52a1,1,0,0,1,0-2h2a1,1,0,0,1,0,2Z"/>
<line class="cls-5" x1="46" x2="48" y1="32" y2="32"/>
<path class="cls-5" d="M48,33H46a1,1,0,0,1,0-2h2a1,1,0,0,1,0,2Z"/>
</g>
</svg>