<?xml version="1.0" encoding="iso-8859-1"?>
<!-- Uploaded to: SVG Repo, www.svgrepo.com, Generator: SVG Repo Mixer Tools -->
<svg height="800px" width="800px" version="1.1" id="Layer_1" xmlns="http://www.w3.org/2000/svg" xmlns:xlink="http://www.w3.org/1999/xlink" 
	 viewBox="0 0 512 512" xml:space="preserve">
<path style="fill:#813115;" d="M495.196,164.639C458.406,68.375,365.195,0,256,0C114.615,0,0,114.616,0,256
	c0,109.195,68.375,202.406,164.639,239.196L495.196,164.639z"/>
<path style="fill:#220D06;" d="M512,256c0-32.189-5.958-62.983-16.804-91.361l-62.112-62.112l-55.092-23.611L78.916,377.992
	l23.611,55.093l62.112,62.112C193.017,506.042,223.811,512,256,512C397.385,512,512,397.384,512,256z"/>
<path style="fill:#FC870B;" d="M204.842,385.862l-47.222,47.222c-15.189,15.189-39.904,15.189-55.092,0l-23.611-23.611
	c-15.189-15.189-15.189-39.904,0-55.092l47.222-47.222l15.741,15.741L94.657,370.12c-6.509,6.509-6.509,17.102,0,23.611
	l23.611,23.611c6.509,6.509,17.102,6.509,23.611,0L189.1,370.12L204.842,385.862z"/>
<path style="fill:#FA690E;" d="M385.862,204.842l47.222-47.222c15.189-15.189,15.189-39.904,0-55.092l-23.611-23.611
	c-15.189-15.189-39.904-15.189-55.092,0l-47.222,47.222l15.741,15.741l47.222-47.222c6.509-6.509,17.102-6.509,23.611,0
	l23.611,23.611c6.509,6.509,6.509,17.102,0,23.611l-47.222,47.222L385.862,204.842z"/>
<path style="fill:#F94C10;" d="M256,66.783L161.391,256L256,445.217c104.501,0,189.217-84.715,189.217-189.217
	S360.501,66.783,256,66.783z"/>
<path style="fill:#FA690E;" d="M66.783,256c0,104.503,84.716,189.217,189.217,189.217V66.783
	C151.499,66.783,66.783,151.497,66.783,256z"/>
<path style="fill:#F72E12;" d="M256,89.043L207.671,256L256,422.957c92.205,0,166.957-74.752,166.957-166.957
	S348.204,89.043,256,89.043z"/>
<path style="fill:#F94C10;" d="M89.043,256c0,92.205,74.752,166.957,166.957,166.957V89.043
	C163.795,89.043,89.043,163.795,89.043,256z"/>
<path style="fill:#DBBC82;" d="M256,111.304L214.114,256L256,400.696c79.911,0,144.696-64.785,144.696-144.696
	S335.911,111.304,256,111.304z"/>
<path style="fill:#FFE376;" d="M111.304,256c0,79.911,64.785,144.696,144.696,144.696V111.304
	C176.089,111.304,111.304,176.089,111.304,256z"/>
<path style="fill:#44702A;" d="M256,133.565l-8.348,16.696L256,166.957c9.22,0,16.696-7.475,16.696-16.696
	S265.22,133.565,256,133.565z"/>
<path style="fill:#63842C;" d="M239.304,150.261c0,9.22,7.475,16.696,16.696,16.696v-33.391
	C246.78,133.565,239.304,141.04,239.304,150.261z"/>
<path style="fill:#44702A;" d="M256,345.043l-8.348,16.696L256,378.435c9.22,0,16.696-7.475,16.696-16.696
	C272.696,352.519,265.22,345.043,256,345.043z"/>
<path style="fill:#63842C;" d="M239.304,361.739c0,9.22,7.475,16.696,16.696,16.696v-33.391
	C246.78,345.043,239.304,352.519,239.304,361.739z"/>
<path style="fill:#365F2C;" d="M361.739,239.304L353.391,256l8.348,16.696c9.22,0,16.696-7.475,16.696-16.696
	S370.96,239.304,361.739,239.304z"/>
<path style="fill:#44702A;" d="M345.043,256c0,9.22,7.475,16.696,16.696,16.696v-33.391C352.519,239.304,345.043,246.78,345.043,256
	z"/>
<path style="fill:#63842C;" d="M150.261,239.304L141.913,256l8.348,16.696c9.22,0,16.696-7.475,16.696-16.696
	S159.481,239.304,150.261,239.304z"/>
<path style="fill:#81982D;" d="M133.565,256c0,9.22,7.475,16.696,16.696,16.696v-33.391C141.04,239.304,133.565,246.78,133.565,256z
	"/>
<polygon style="fill:#934D2B;" points="296.344,206.416 270.167,241.833 284.334,256 302.811,237.521 "/>
<g>
	<polygon style="fill:#A56840;" points="274.479,209.189 256,227.666 270.167,241.833 300.964,211.036 	"/>
	<path style="fill:#A56840;" d="M331.145,180.855l-32.268,10.231l-10.231,32.268l14.167,14.167c7.824,7.824,20.509,7.824,28.334,0
		C346.793,221.873,346.793,196.503,331.145,180.855z"/>
</g>
<g>
	<path style="fill:#B78456;" d="M274.479,180.855c-7.824,7.824-7.824,20.509,0,28.334l14.167,14.167l42.5-42.5
		C315.497,165.207,290.127,165.207,274.479,180.855z"/>
	<polygon style="fill:#B78456;" points="215.656,305.584 241.833,270.167 227.666,256 209.189,274.479 	"/>
</g>
<polygon style="fill:#A56840;" points="237.521,302.811 256,284.334 241.833,270.167 211.036,300.964 "/>
<path style="fill:#C9A06C;" d="M180.855,331.145l32.268-10.231l10.231-32.268l-14.167-14.167c-7.824-7.824-20.509-7.824-28.334,0
	C165.207,290.127,165.207,315.497,180.855,331.145z"/>
<path style="fill:#B78456;" d="M237.521,331.145c7.824-7.824,7.824-20.509,0-28.334l-14.167-14.166l-42.5,42.5
	C196.503,346.793,221.873,346.793,237.521,331.145z"/>
<polygon style="fill:#934D2B;" points="305.584,296.344 270.167,270.167 256,284.334 274.479,302.811 "/>
<g>
	<polygon style="fill:#A56840;" points="302.811,274.479 284.334,256 270.167,270.167 300.964,300.964 	"/>
	<path style="fill:#A56840;" d="M331.145,331.145l-10.231-32.268l-32.268-10.231l-14.167,14.167c-7.824,7.824-7.824,20.509,0,28.334
		C290.127,346.793,315.497,346.793,331.145,331.145z"/>
</g>
<g>
	<path style="fill:#B78456;" d="M331.145,274.479c-7.824-7.824-20.509-7.824-28.334,0l-14.166,14.167l42.5,42.5
		C346.793,315.497,346.793,290.127,331.145,274.479z"/>
	<polygon style="fill:#B78456;" points="206.416,215.656 241.833,241.833 256,227.666 237.521,209.189 	"/>
</g>
<polygon style="fill:#A56840;" points="209.189,237.521 227.666,256 241.833,241.833 211.036,211.036 "/>
<path style="fill:#C9A06C;" d="M180.855,180.855l10.231,32.268l32.268,10.231l14.167-14.167c7.824-7.824,7.824-20.509,0-28.334
	C221.873,165.207,196.503,165.207,180.855,180.855z"/>
<path style="fill:#B78456;" d="M180.855,237.521c7.824,7.824,20.509,7.824,28.334,0l14.167-14.167l-42.5-42.5
	C165.207,196.503,165.207,221.873,180.855,237.521z"/>
</svg>